<svg xmlns="http://www.w3.org/2000/svg" viewBox="0 0 536 272" width="536" height="272" role="img" aria-label="A chain of four, and a mark that bends at every hop"><rect width="536" height="272" fill="#F7F4EE"/><circle cx="92" cy="176" r="26" fill="none" stroke="#14110E" stroke-width="3"/><line x1="122" y1="176" x2="176" y2="176" stroke="#14110E" stroke-width="2.5"/><polygon points="176,176 166,171 166,181" fill="#14110E"/><circle cx="210" cy="176" r="26" fill="none" stroke="#14110E" stroke-width="3"/><line x1="240" y1="176" x2="294" y2="176" stroke="#14110E" stroke-width="2.5"/><polygon points="294,176 284,171 284,181" fill="#14110E"/><circle cx="328" cy="176" r="26" fill="none" stroke="#14110E" stroke-width="3"/><line x1="358" y1="176" x2="412" y2="176" stroke="#14110E" stroke-width="2.5"/><polygon points="412,176 402,171 402,181" fill="#14110E"/><circle cx="446" cy="176" r="26" fill="none" stroke="#14110E" stroke-width="3"/><g transform="translate(92,84) rotate(0)"><rect x="-37.0" y="-7" width="74" height="14" fill="#14110E"/></g><line x1="92" y1="100" x2="92" y2="146" stroke="#DBD4C7" stroke-width="2"/><g transform="translate(210,84) rotate(-7)"><rect x="-31.0" y="-7" width="62" height="14" fill="#14110E"/></g><line x1="210" y1="100" x2="210" y2="146" stroke="#DBD4C7" stroke-width="2"/><g transform="translate(328,84) rotate(-14)"><rect x="-24.0" y="-7" width="48" height="14" fill="#14110E"/></g><line x1="328" y1="100" x2="328" y2="146" stroke="#DBD4C7" stroke-width="2"/><g transform="translate(446,84) rotate(-22)"><rect x="-16.0" y="-7" width="32" height="14" fill="#D93A00"/></g><line x1="446" y1="100" x2="446" y2="146" stroke="#DBD4C7" stroke-width="2"/></svg>