<svg xmlns="http://www.w3.org/2000/svg" viewBox="0 0 536 272" width="536" height="272" role="img" aria-label="A sound wave growing towards a star"><rect width="536" height="272" fill="#F7F4EE"/><polyline points="96.0,136.0 97.3,135.3 98.7,134.7 100.0,134.0 101.4,133.4 102.8,132.8 104.1,132.2 105.5,131.7 106.8,131.2 108.2,130.8 109.5,130.4 110.8,130.1 112.2,129.9 113.5,129.7 114.9,129.6 116.2,129.6 117.6,129.6 119.0,129.8 120.3,130.0 121.7,130.3 123.0,130.6 124.3,131.1 125.7,131.6 127.0,132.1 128.4,132.8 129.8,133.5 131.1,134.2 132.4,135.0 133.8,135.8 135.2,136.6 136.5,137.4 137.8,138.3 139.2,139.1 140.6,139.9 141.9,140.7 143.2,141.4 144.6,142.1 145.9,142.7 147.3,143.3 148.7,143.8 150.0,144.2 151.3,144.5 152.7,144.7 154.1,144.8 155.4,144.8 156.8,144.7 158.1,144.4 159.4,144.1 160.8,143.6 162.2,143.1 163.5,142.4 164.9,141.6 166.2,140.8 167.6,139.8 168.9,138.8 170.2,137.8 171.6,136.6 172.9,135.5 174.3,134.3 175.7,133.1 177.0,131.9 178.4,130.7 179.7,129.6 181.1,128.5 182.4,127.5 183.8,126.6 185.1,125.8 186.4,125.0 187.8,124.4 189.2,124.0 190.5,123.6 191.9,123.4 193.2,123.4 194.6,123.5 195.9,123.8 197.2,124.3 198.6,124.9 199.9,125.7 201.3,126.6 202.7,127.6 204.0,128.8 205.4,130.1 206.7,131.6 208.1,133.1 209.4,134.7 210.8,136.3 212.1,138.0 213.4,139.7 214.8,141.3 216.2,143.0 217.5,144.6 218.9,146.1 220.2,147.6 221.6,148.9 222.9,150.1 224.2,151.2 225.6,152.0 227.0,152.7 228.3,153.2 229.7,153.5 231.0,153.6 232.4,153.5 233.7,153.1 235.1,152.5 236.4,151.7 237.8,150.7 239.1,149.5 240.5,148.0 241.8,146.4 243.2,144.6 244.5,142.7 245.9,140.6 247.2,138.5 248.6,136.2 249.9,133.9 251.2,131.6 252.6,129.3 254.0,127.0 255.3,124.8 256.6,122.7 258.0,120.7 259.4,118.9 260.7,117.2 262.1,115.8 263.4,114.5 264.8,113.6 266.1,112.8 267.5,112.4 268.8,112.2 270.1,112.4 271.5,112.8 272.9,113.5 274.2,114.6 275.6,115.9 276.9,117.5 278.2,119.4 279.6,121.5 281.0,123.8 282.3,126.4 283.6,129.1 285.0,131.9 286.4,134.9 287.7,137.9 289.1,141.0 290.4,144.0 291.8,147.0 293.1,149.9 294.5,152.7 295.8,155.4 297.1,157.8 298.5,160.1 299.9,162.0 301.2,163.7 302.6,165.0 303.9,166.0 305.2,166.7 306.6,167.0 308.0,166.8 309.3,166.3 310.6,165.5 312.0,164.2 313.4,162.5 314.7,160.5 316.1,158.2 317.4,155.5 318.8,152.5 320.1,149.3 321.5,145.9 322.8,142.2 324.1,138.5 325.5,134.6 326.9,130.7 328.2,126.8 329.6,123.0 330.9,119.2 332.2,115.6 333.6,112.2 335.0,109.0 336.3,106.2 337.6,103.6 339.0,101.4 340.4,99.6 341.7,98.3 343.1,97.4 344.4,96.9 345.8,97.0 347.1,97.5 348.5,98.5 349.8,100.0 351.1,102.0 352.5,104.4 353.9,107.3 355.2,110.6 356.6,114.2 357.9,118.2 359.2,122.4 360.6,126.9 362.0,131.6 363.3,136.4 364.7,141.2 366.0,146.1 367.4,150.9 368.7,155.6 370.1,160.1 371.4,164.4 372.8,168.4 374.1,172.1 375.5,175.3 376.8,178.1 378.2,180.4 379.5,182.2 380.9,183.4 382.2,184.1 383.6,184.2 384.9,183.7 386.2,182.5 387.6,180.8 389.0,178.5 390.3,175.6 391.7,172.2 393.0,168.3 394.4,163.9 395.7,159.2 397.1,154.0 398.4,148.6 399.8,143.0 401.1,137.1 402.5,131.2 403.8,125.3 405.2,119.4 406.5,113.7 407.9,108.1 409.2,102.9 410.6,98.0 411.9,93.4 413.2,89.4 414.6,85.9 416.0,83.0 417.3,80.6 418.7,79.0 420.0,78.0" fill="none" stroke="#14110E" stroke-width="3" stroke-linejoin="round"/><line x1="96" y1="136" x2="424" y2="136" stroke="#DBD4C7" stroke-width="2"/><polygon points="438.0,115.0 442.7,129.5 458.0,129.5 445.6,138.5 450.3,153.0 438.0,144.0 425.7,153.0 430.4,138.5 418.0,129.5 433.3,129.5" fill="#D93A00"/></svg>